<svg width="92" height="90" viewBox="0 0 92 90" fill="none" xmlns="http://www.w3.org/2000/svg">
<path d="M0.75 45C0.75 20.1472 20.8972 0 45.75 0H46.75C71.6028 0 91.75 20.1472 91.75 45V45C91.75 69.8528 71.6028 90 46.75 90H45.75C20.8972 90 0.75 69.8528 0.75 45V45Z" fill="#212226" fill-opacity="0.6"/>
<path d="M42.7893 69.9513L38.0241 68.2227C37.5241 68.0469 37.2429 67.3925 37.3835 66.7675L48.0467 20.846C48.1873 20.221 48.7107 19.8694 49.2107 20.0452L53.9759 21.7738C54.4759 21.9496 54.7571 22.604 54.6165 23.229L43.9533 69.1505C43.8049 69.7755 43.2893 70.1369 42.7893 69.9513V69.9513ZM33.8838 58.9934L37.2819 54.4619C37.6413 53.9833 37.6178 53.2215 37.2194 52.782L30.1419 44.9983L37.2194 37.2145C37.6178 36.775 37.6491 36.0132 37.2819 35.5346L33.8838 31.0031C33.5322 30.5343 32.9385 30.505 32.5557 30.9542L21.2988 44.1388C20.9004 44.5978 20.9004 45.3889 21.2988 45.8479L32.5557 59.0423C32.9385 59.4915 33.5322 59.472 33.8838 58.9934V58.9934ZM59.4443 59.052L70.7012 45.8577C71.0996 45.3987 71.0996 44.6076 70.7012 44.1486L59.4443 30.9445C59.0693 30.505 58.4756 30.5245 58.1162 30.9933L54.7181 35.5249C54.3587 36.0034 54.3822 36.7652 54.7806 37.2047L61.8581 44.9983L54.7806 52.782C54.3822 53.2215 54.3509 53.9833 54.7181 54.4619L58.1162 58.9934C58.4678 59.472 59.0615 59.4915 59.4443 59.052V59.052Z" fill="#15CDBD"/>
</svg>
