<svg width="91" height="90" viewBox="0 0 91 90" fill="none" xmlns="http://www.w3.org/2000/svg">
<path d="M0 45C0 20.1472 20.1472 0 45 0H46C70.8528 0 91 20.1472 91 45V45C91 69.8528 70.8528 90 46 90H45C20.1472 90 0 69.8528 0 45V45Z" fill="#212226" fill-opacity="0.6"/>
<path d="M40.9242 45.5518C41.4125 46.1621 42.2039 46.1621 42.6922 45.5518L43.5758 44.4473C44.0641 43.8369 44.0641 42.8477 43.5758 42.2373L40.7852 38.75L43.575 35.2617C44.0633 34.6514 44.0633 33.6621 43.575 33.0518L42.6914 31.9473C42.2031 31.3369 41.4117 31.3369 40.9234 31.9473L36.3656 37.6445C35.8773 38.2549 35.8773 39.2441 36.3656 39.8545L40.9242 45.5518V45.5518ZM48.425 44.4482L49.3086 45.5527C49.7969 46.1631 50.5883 46.1631 51.0766 45.5527L55.6344 39.8555C56.1227 39.2451 56.1227 38.2559 55.6344 37.6455L51.0766 31.9482C50.5883 31.3379 49.7969 31.3379 49.3086 31.9482L48.425 33.0527C47.9367 33.6631 47.9367 34.6523 48.425 35.2627L51.2148 38.75L48.425 42.2383C47.9367 42.8486 47.9367 43.8379 48.425 44.4482V44.4482ZM69.75 60.625H50.8078C50.75 62.5596 49.6586 63.75 48.25 63.75H43.5C42.0398 63.75 40.9203 62.0439 40.9398 60.625H22.25C21.5625 60.625 21 61.3281 21 62.1875V63.75C21 67.1875 23.25 70 26 70H66C68.75 70 71 67.1875 71 63.75V62.1875C71 61.3281 70.4375 60.625 69.75 60.625ZM66 24.6875C66 22.1094 64.3125 20 62.25 20H29.75C27.6875 20 26 22.1094 26 24.6875V57.5H66V24.6875ZM61 51.25H31V26.25H61V51.25Z" fill="#15CDBD"/>
</svg>
