<svg width="118" height="46" viewBox="0 0 118 46" fill="none" xmlns="http://www.w3.org/2000/svg">
<path d="M36.0242 8.272C36.4562 7.52 37.0962 6.896 37.9442 6.4C38.8082 5.888 39.8082 5.632 40.9442 5.632C42.1122 5.632 43.1682 5.912 44.1122 6.472C45.0722 7.032 45.8242 7.824 46.3682 8.848C46.9122 9.856 47.1842 11.032 47.1842 12.376C47.1842 13.704 46.9122 14.888 46.3682 15.928C45.8242 16.968 45.0722 17.776 44.1122 18.352C43.1682 18.928 42.1122 19.216 40.9442 19.216C39.8242 19.216 38.8322 18.968 37.9682 18.472C37.1202 17.96 36.4722 17.328 36.0242 16.576V25.24H33.8402V5.848H36.0242V8.272ZM44.9522 12.376C44.9522 11.384 44.7522 10.52 44.3522 9.784C43.9522 9.048 43.4082 8.488 42.7202 8.104C42.0482 7.72 41.3042 7.528 40.4882 7.528C39.6882 7.528 38.9442 7.728 38.2562 8.128C37.5842 8.512 37.0402 9.08 36.6242 9.832C36.2242 10.568 36.0242 11.424 36.0242 12.4C36.0242 13.392 36.2242 14.264 36.6242 15.016C37.0402 15.752 37.5842 16.32 38.2562 16.72C38.9442 17.104 39.6882 17.296 40.4882 17.296C41.3042 17.296 42.0482 17.104 42.7202 16.72C43.4082 16.32 43.9522 15.752 44.3522 15.016C44.7522 14.264 44.9522 13.384 44.9522 12.376ZM49.2429 12.376C49.2429 11.032 49.5149 9.856 50.0589 8.848C50.6029 7.824 51.3469 7.032 52.2909 6.472C53.2509 5.912 54.3149 5.632 55.4829 5.632C56.6349 5.632 57.6349 5.88 58.4829 6.376C59.3309 6.872 59.9629 7.496 60.3789 8.248V5.848H62.5869V19H60.3789V16.552C59.9469 17.32 59.2989 17.96 58.4349 18.472C57.5869 18.968 56.5949 19.216 55.4589 19.216C54.2909 19.216 53.2349 18.928 52.2909 18.352C51.3469 17.776 50.6029 16.968 50.0589 15.928C49.5149 14.888 49.2429 13.704 49.2429 12.376ZM60.3789 12.4C60.3789 11.408 60.1789 10.544 59.7789 9.808C59.3789 9.072 58.8349 8.512 58.1469 8.128C57.4749 7.728 56.7309 7.528 55.9149 7.528C55.0989 7.528 54.3549 7.72 53.6829 8.104C53.0109 8.488 52.4749 9.048 52.0749 9.784C51.6749 10.52 51.4749 11.384 51.4749 12.376C51.4749 13.384 51.6749 14.264 52.0749 15.016C52.4749 15.752 53.0109 16.32 53.6829 16.72C54.3549 17.104 55.0989 17.296 55.9149 17.296C56.7309 17.296 57.4749 17.104 58.1469 16.72C58.8349 16.32 59.3789 15.752 59.7789 15.016C60.1789 14.264 60.3789 13.392 60.3789 12.4ZM77.9417 5.848V19H75.7577V17.056C75.3417 17.728 74.7577 18.256 74.0057 18.64C73.2697 19.008 72.4537 19.192 71.5577 19.192C70.5337 19.192 69.6137 18.984 68.7977 18.568C67.9817 18.136 67.3337 17.496 66.8537 16.648C66.3897 15.8 66.1577 14.768 66.1577 13.552V5.848H68.3177V13.264C68.3177 14.56 68.6457 15.56 69.3017 16.264C69.9577 16.952 70.8537 17.296 71.9897 17.296C73.1577 17.296 74.0777 16.936 74.7497 16.216C75.4217 15.496 75.7577 14.448 75.7577 13.072V5.848H77.9417ZM83.8133 1.24V19H81.6293V1.24H83.8133ZM93.2715 19.216C92.0395 19.216 90.9195 18.936 89.9115 18.376C88.9195 17.816 88.1355 17.024 87.5595 16C86.9995 14.96 86.7195 13.76 86.7195 12.4C86.7195 11.056 87.0075 9.872 87.5835 8.848C88.1755 7.808 88.9755 7.016 89.9835 6.472C90.9915 5.912 92.1195 5.632 93.3675 5.632C94.6155 5.632 95.7435 5.912 96.7515 6.472C97.7595 7.016 98.5515 7.8 99.1275 8.824C99.7195 9.848 100.016 11.04 100.016 12.4C100.016 13.76 99.7115 14.96 99.1035 16C98.5115 17.024 97.7035 17.816 96.6795 18.376C95.6555 18.936 94.5195 19.216 93.2715 19.216ZM93.2715 17.296C94.0555 17.296 94.7915 17.112 95.4795 16.744C96.1675 16.376 96.7195 15.824 97.1355 15.088C97.5675 14.352 97.7835 13.456 97.7835 12.4C97.7835 11.344 97.5755 10.448 97.1595 9.712C96.7435 8.976 96.1995 8.432 95.5275 8.08C94.8555 7.712 94.1275 7.528 93.3435 7.528C92.5435 7.528 91.8075 7.712 91.1355 8.08C90.4795 8.432 89.9515 8.976 89.5515 9.712C89.1515 10.448 88.9515 11.344 88.9515 12.4C88.9515 13.472 89.1435 14.376 89.5275 15.112C89.9275 15.848 90.4555 16.4 91.1115 16.768C91.7675 17.12 92.4875 17.296 93.2715 17.296ZM36.0242 29.296C36.4722 28.512 37.1282 27.872 37.9922 27.376C38.8562 26.88 39.8402 26.632 40.9442 26.632C42.1282 26.632 43.1922 26.912 44.1362 27.472C45.0802 28.032 45.8242 28.824 46.3682 29.848C46.9122 30.856 47.1842 32.032 47.1842 33.376C47.1842 34.704 46.9122 35.888 46.3682 36.928C45.8242 37.968 45.0722 38.776 44.1122 39.352C43.1682 39.928 42.1122 40.216 40.9442 40.216C39.8082 40.216 38.8082 39.968 37.9442 39.472C37.0962 38.976 36.4562 38.344 36.0242 37.576V40H33.8402V22.24H36.0242V29.296ZM44.9522 33.376C44.9522 32.384 44.7522 31.52 44.3522 30.784C43.9522 30.048 43.4082 29.488 42.7202 29.104C42.0482 28.72 41.3042 28.528 40.4882 28.528C39.6882 28.528 38.9442 28.728 38.2562 29.128C37.5842 29.512 37.0402 30.08 36.6242 30.832C36.2242 31.568 36.0242 32.424 36.0242 33.4C36.0242 34.392 36.2242 35.264 36.6242 36.016C37.0402 36.752 37.5842 37.32 38.2562 37.72C38.9442 38.104 39.6882 38.296 40.4882 38.296C41.3042 38.296 42.0482 38.104 42.7202 37.72C43.4082 37.32 43.9522 36.752 44.3522 36.016C44.7522 35.264 44.9522 34.384 44.9522 33.376ZM52.2429 28.984C52.6269 28.232 53.1709 27.648 53.8749 27.232C54.5949 26.816 55.4669 26.608 56.4909 26.608V28.864H55.9149C53.4669 28.864 52.2429 30.192 52.2429 32.848V40H50.0589V26.848H52.2429V28.984ZM70.6761 26.848V40H68.4921V38.056C68.0761 38.728 67.4921 39.256 66.7401 39.64C66.0041 40.008 65.1881 40.192 64.2921 40.192C63.2681 40.192 62.3481 39.984 61.5321 39.568C60.7161 39.136 60.0681 38.496 59.5881 37.648C59.1241 36.8 58.8921 35.768 58.8921 34.552V26.848H61.0521V34.264C61.0521 35.56 61.3801 36.56 62.0361 37.264C62.6921 37.952 63.5881 38.296 64.7241 38.296C65.8921 38.296 66.8121 37.936 67.4841 37.216C68.1561 36.496 68.4921 35.448 68.4921 34.072V26.848H70.6761ZM80.7716 26.608C82.3716 26.608 83.6676 27.096 84.6596 28.072C85.6516 29.032 86.1476 30.424 86.1476 32.248V40H83.9876V32.56C83.9876 31.248 83.6596 30.248 83.0036 29.56C82.3476 28.856 81.4516 28.504 80.3156 28.504C79.1636 28.504 78.2436 28.864 77.5556 29.584C76.8836 30.304 76.5476 31.352 76.5476 32.728V40H74.3636V26.848H76.5476V28.72C76.9796 28.048 77.5636 27.528 78.2996 27.16C79.0516 26.792 79.8756 26.608 80.7716 26.608ZM95.4512 40.216C94.2192 40.216 93.0992 39.936 92.0912 39.376C91.0992 38.816 90.3152 38.024 89.7392 37C89.1792 35.96 88.8992 34.76 88.8992 33.4C88.8992 32.056 89.1872 30.872 89.7632 29.848C90.3552 28.808 91.1552 28.016 92.1632 27.472C93.1712 26.912 94.2992 26.632 95.5472 26.632C96.7952 26.632 97.9232 26.912 98.9312 27.472C99.9392 28.016 100.731 28.8 101.307 29.824C101.899 30.848 102.195 32.04 102.195 33.4C102.195 34.76 101.891 35.96 101.283 37C100.691 38.024 99.8832 38.816 98.8592 39.376C97.8352 39.936 96.6992 40.216 95.4512 40.216ZM95.4512 38.296C96.2352 38.296 96.9712 38.112 97.6592 37.744C98.3472 37.376 98.8992 36.824 99.3152 36.088C99.7472 35.352 99.9632 34.456 99.9632 33.4C99.9632 32.344 99.7552 31.448 99.3392 30.712C98.9232 29.976 98.3792 29.432 97.7072 29.08C97.0352 28.712 96.3072 28.528 95.5232 28.528C94.7232 28.528 93.9872 28.712 93.3152 29.08C92.6592 29.432 92.1312 29.976 91.7312 30.712C91.3312 31.448 91.1312 32.344 91.1312 33.4C91.1312 34.472 91.3232 35.376 91.7072 36.112C92.1072 36.848 92.6352 37.4 93.2912 37.768C93.9472 38.12 94.6672 38.296 95.4512 38.296Z" fill="white"/>
<path d="M26 0V23L26 46" stroke="#5280E2" stroke-width="4"/>
</svg>
