<svg width="83" height="46" viewBox="0 0 83 46" fill="none" xmlns="http://www.w3.org/2000/svg">
<g clip-path="url(#clip0)">
<line x1="2" x2="2" y2="46" stroke="#5280E2" stroke-width="4"/>
<path d="M16.032 8.272C16.464 7.52 17.104 6.896 17.952 6.4C18.816 5.888 19.816 5.632 20.952 5.632C22.12 5.632 23.176 5.912 24.12 6.472C25.08 7.032 25.832 7.824 26.376 8.848C26.92 9.856 27.192 11.032 27.192 12.376C27.192 13.704 26.92 14.888 26.376 15.928C25.832 16.968 25.08 17.776 24.12 18.352C23.176 18.928 22.12 19.216 20.952 19.216C19.832 19.216 18.84 18.968 17.976 18.472C17.128 17.96 16.48 17.328 16.032 16.576V25.24H13.848V5.848H16.032V8.272ZM24.96 12.376C24.96 11.384 24.76 10.52 24.36 9.784C23.96 9.048 23.416 8.488 22.728 8.104C22.056 7.72 21.312 7.528 20.496 7.528C19.696 7.528 18.952 7.728 18.264 8.128C17.592 8.512 17.048 9.08 16.632 9.832C16.232 10.568 16.032 11.424 16.032 12.4C16.032 13.392 16.232 14.264 16.632 15.016C17.048 15.752 17.592 16.32 18.264 16.72C18.952 17.104 19.696 17.296 20.496 17.296C21.312 17.296 22.056 17.104 22.728 16.72C23.416 16.32 23.96 15.752 24.36 15.016C24.76 14.264 24.96 13.384 24.96 12.376ZM29.2508 12.376C29.2508 11.032 29.5228 9.856 30.0668 8.848C30.6108 7.824 31.3548 7.032 32.2988 6.472C33.2588 5.912 34.3228 5.632 35.4908 5.632C36.6428 5.632 37.6428 5.88 38.4908 6.376C39.3388 6.872 39.9708 7.496 40.3868 8.248V5.848H42.5948V19H40.3868V16.552C39.9548 17.32 39.3068 17.96 38.4428 18.472C37.5948 18.968 36.6028 19.216 35.4668 19.216C34.2988 19.216 33.2428 18.928 32.2988 18.352C31.3548 17.776 30.6108 16.968 30.0668 15.928C29.5228 14.888 29.2508 13.704 29.2508 12.376ZM40.3868 12.4C40.3868 11.408 40.1868 10.544 39.7868 9.808C39.3868 9.072 38.8428 8.512 38.1548 8.128C37.4828 7.728 36.7388 7.528 35.9228 7.528C35.1068 7.528 34.3628 7.72 33.6908 8.104C33.0188 8.488 32.4828 9.048 32.0828 9.784C31.6828 10.52 31.4828 11.384 31.4828 12.376C31.4828 13.384 31.6828 14.264 32.0828 15.016C32.4828 15.752 33.0188 16.32 33.6908 16.72C34.3628 17.104 35.1068 17.296 35.9228 17.296C36.7388 17.296 37.4828 17.104 38.1548 16.72C38.8428 16.32 39.3868 15.752 39.7868 15.016C40.1868 14.264 40.3868 13.392 40.3868 12.4ZM57.9495 5.848V19H55.7655V17.056C55.3495 17.728 54.7655 18.256 54.0135 18.64C53.2775 19.008 52.4615 19.192 51.5655 19.192C50.5415 19.192 49.6215 18.984 48.8055 18.568C47.9895 18.136 47.3415 17.496 46.8615 16.648C46.3975 15.8 46.1655 14.768 46.1655 13.552V5.848H48.3255V13.264C48.3255 14.56 48.6535 15.56 49.3095 16.264C49.9655 16.952 50.8615 17.296 51.9975 17.296C53.1655 17.296 54.0855 16.936 54.7575 16.216C55.4295 15.496 55.7655 14.448 55.7655 13.072V5.848H57.9495ZM63.8211 1.24V19H61.6371V1.24H63.8211ZM73.2793 19.216C72.0473 19.216 70.9273 18.936 69.9193 18.376C68.9273 17.816 68.1433 17.024 67.5673 16C67.0073 14.96 66.7273 13.76 66.7273 12.4C66.7273 11.056 67.0153 9.872 67.5913 8.848C68.1833 7.808 68.9833 7.016 69.9913 6.472C70.9993 5.912 72.1273 5.632 73.3753 5.632C74.6233 5.632 75.7513 5.912 76.7593 6.472C77.7673 7.016 78.5593 7.8 79.1353 8.824C79.7273 9.848 80.0233 11.04 80.0233 12.4C80.0233 13.76 79.7193 14.96 79.1113 16C78.5193 17.024 77.7113 17.816 76.6873 18.376C75.6633 18.936 74.5273 19.216 73.2793 19.216ZM73.2793 17.296C74.0633 17.296 74.7993 17.112 75.4873 16.744C76.1753 16.376 76.7273 15.824 77.1433 15.088C77.5753 14.352 77.7913 13.456 77.7913 12.4C77.7913 11.344 77.5833 10.448 77.1673 9.712C76.7513 8.976 76.2073 8.432 75.5353 8.08C74.8633 7.712 74.1353 7.528 73.3513 7.528C72.5513 7.528 71.8153 7.712 71.1433 8.08C70.4873 8.432 69.9593 8.976 69.5593 9.712C69.1593 10.448 68.9593 11.344 68.9593 12.4C68.9593 13.472 69.1513 14.376 69.5353 15.112C69.9353 15.848 70.4633 16.4 71.1193 16.768C71.7753 17.12 72.4953 17.296 73.2793 17.296ZM16.032 29.296C16.48 28.512 17.136 27.872 18 27.376C18.864 26.88 19.848 26.632 20.952 26.632C22.136 26.632 23.2 26.912 24.144 27.472C25.088 28.032 25.832 28.824 26.376 29.848C26.92 30.856 27.192 32.032 27.192 33.376C27.192 34.704 26.92 35.888 26.376 36.928C25.832 37.968 25.08 38.776 24.12 39.352C23.176 39.928 22.12 40.216 20.952 40.216C19.816 40.216 18.816 39.968 17.952 39.472C17.104 38.976 16.464 38.344 16.032 37.576V40H13.848V22.24H16.032V29.296ZM24.96 33.376C24.96 32.384 24.76 31.52 24.36 30.784C23.96 30.048 23.416 29.488 22.728 29.104C22.056 28.72 21.312 28.528 20.496 28.528C19.696 28.528 18.952 28.728 18.264 29.128C17.592 29.512 17.048 30.08 16.632 30.832C16.232 31.568 16.032 32.424 16.032 33.4C16.032 34.392 16.232 35.264 16.632 36.016C17.048 36.752 17.592 37.32 18.264 37.72C18.952 38.104 19.696 38.296 20.496 38.296C21.312 38.296 22.056 38.104 22.728 37.72C23.416 37.32 23.96 36.752 24.36 36.016C24.76 35.264 24.96 34.384 24.96 33.376ZM32.2508 28.984C32.6348 28.232 33.1788 27.648 33.8828 27.232C34.6028 26.816 35.4748 26.608 36.4988 26.608V28.864H35.9228C33.4748 28.864 32.2508 30.192 32.2508 32.848V40H30.0668V26.848H32.2508V28.984ZM50.6839 26.848V40H48.4999V38.056C48.0839 38.728 47.4999 39.256 46.7479 39.64C46.0119 40.008 45.1959 40.192 44.2999 40.192C43.2759 40.192 42.3559 39.984 41.5399 39.568C40.7239 39.136 40.0759 38.496 39.5959 37.648C39.1319 36.8 38.8999 35.768 38.8999 34.552V26.848H41.0599V34.264C41.0599 35.56 41.3879 36.56 42.0439 37.264C42.6999 37.952 43.5959 38.296 44.7319 38.296C45.8999 38.296 46.8199 37.936 47.4919 37.216C48.1639 36.496 48.4999 35.448 48.4999 34.072V26.848H50.6839ZM60.7794 26.608C62.3794 26.608 63.6754 27.096 64.6674 28.072C65.6594 29.032 66.1554 30.424 66.1554 32.248V40H63.9954V32.56C63.9954 31.248 63.6674 30.248 63.0114 29.56C62.3554 28.856 61.4594 28.504 60.3234 28.504C59.1714 28.504 58.2514 28.864 57.5634 29.584C56.8914 30.304 56.5554 31.352 56.5554 32.728V40H54.3714V26.848H56.5554V28.72C56.9874 28.048 57.5714 27.528 58.3074 27.16C59.0594 26.792 59.8834 26.608 60.7794 26.608ZM75.459 40.216C74.227 40.216 73.107 39.936 72.099 39.376C71.107 38.816 70.323 38.024 69.747 37C69.187 35.96 68.907 34.76 68.907 33.4C68.907 32.056 69.195 30.872 69.771 29.848C70.363 28.808 71.163 28.016 72.171 27.472C73.179 26.912 74.307 26.632 75.555 26.632C76.803 26.632 77.931 26.912 78.939 27.472C79.947 28.016 80.739 28.8 81.315 29.824C81.907 30.848 82.203 32.04 82.203 33.4C82.203 34.76 81.899 35.96 81.291 37C80.699 38.024 79.891 38.816 78.867 39.376C77.843 39.936 76.707 40.216 75.459 40.216ZM75.459 38.296C76.243 38.296 76.979 38.112 77.667 37.744C78.355 37.376 78.907 36.824 79.323 36.088C79.755 35.352 79.971 34.456 79.971 33.4C79.971 32.344 79.763 31.448 79.347 30.712C78.931 29.976 78.387 29.432 77.715 29.08C77.043 28.712 76.315 28.528 75.531 28.528C74.731 28.528 73.995 28.712 73.323 29.08C72.667 29.432 72.139 29.976 71.739 30.712C71.339 31.448 71.139 32.344 71.139 33.4C71.139 34.472 71.331 35.376 71.715 36.112C72.115 36.848 72.643 37.4 73.299 37.768C73.955 38.12 74.675 38.296 75.459 38.296Z" fill="white"/>
</g>
<defs>
<clipPath id="clip0">
<rect width="83" height="46" fill="white"/>
</clipPath>
</defs>
</svg>
