<svg width="50" height="50" viewBox="0 0 50 50" fill="none" xmlns="http://www.w3.org/2000/svg">
<path d="M19.9242 25.5518C20.4125 26.1621 21.2039 26.1621 21.6922 25.5518L22.5758 24.4473C23.0641 23.8369 23.0641 22.8477 22.5758 22.2373L19.7852 18.75L22.575 15.2617C23.0633 14.6514 23.0633 13.6621 22.575 13.0518L21.6914 11.9473C21.2031 11.3369 20.4117 11.3369 19.9234 11.9473L15.3656 17.6445C14.8773 18.2549 14.8773 19.2441 15.3656 19.8545L19.9242 25.5518V25.5518ZM27.425 24.4482L28.3086 25.5527C28.7969 26.1631 29.5883 26.1631 30.0766 25.5527L34.6344 19.8555C35.1227 19.2451 35.1227 18.2559 34.6344 17.6455L30.0766 11.9482C29.5883 11.3379 28.7969 11.3379 28.3086 11.9482L27.425 13.0527C26.9367 13.6631 26.9367 14.6523 27.425 15.2627L30.2148 18.75L27.425 22.2383C26.9367 22.8486 26.9367 23.8379 27.425 24.4482V24.4482ZM48.75 40.625H29.8078C29.75 42.5596 28.6586 43.75 27.25 43.75H22.5C21.0398 43.75 19.9203 42.0439 19.9398 40.625H1.25C0.5625 40.625 0 41.3281 0 42.1875V43.75C0 47.1875 2.25 50 5 50H45C47.75 50 50 47.1875 50 43.75V42.1875C50 41.3281 49.4375 40.625 48.75 40.625ZM45 4.6875C45 2.10938 43.3125 0 41.25 0H8.75C6.6875 0 5 2.10938 5 4.6875V37.5H45V4.6875ZM40 31.25H10V6.25H40V31.25Z" fill="#15CDBD"/>
</svg>
